<svg width="221" height="74" viewBox="0 0 221 74" fill="none" xmlns="http://www.w3.org/2000/svg">
<g clip-path="url(#clip0_2_383)">
<rect y="5.33325" width="58.6667" height="58.6667" fill="white"/>
<g clip-path="url(#clip1_2_383)">
<path fill-rule="evenodd" clip-rule="evenodd" d="M17.2726 31.6987C17.0583 32.3051 16.5711 32.7401 15.8002 32.7401C15.0293 32.7401 14.2385 32.0412 14.2385 31.1785C14.2385 30.3166 14.9383 29.6168 15.8002 29.6168C24.822 29.6168 33.8446 29.6168 42.8664 29.6168C43.7292 29.6168 44.4281 30.3166 44.4281 31.1785C44.4281 32.0404 43.6382 32.7401 42.8664 32.7401C42.0955 32.7401 41.6083 32.3059 41.3941 31.6987H42.8673C43.1526 31.6987 43.3876 31.4647 43.3876 31.1785C43.3876 30.8923 43.1535 30.6582 42.8673 30.6582C33.8446 30.6582 24.822 30.6582 15.8002 30.6582C15.514 30.6582 15.2799 30.8923 15.2799 31.1785C15.2799 31.4647 15.514 31.6987 15.8002 31.6987H17.2726ZM15.8002 27.5348C13.7886 27.5348 12.1566 29.166 12.1566 31.1785C12.1566 33.1901 13.8771 34.8221 15.8002 34.8221C17.7242 34.8221 19.1543 33.4647 19.4066 31.6987H39.2609C39.5132 33.4647 40.9433 34.8221 42.8673 34.8221C44.7912 34.8221 46.5109 33.1909 46.5109 31.1785C46.5109 29.166 44.8797 27.5348 42.8673 27.5348H15.8002ZM36.6198 25.4529C36.6198 26.0261 36.1508 26.4943 35.5792 26.4943H23.0875C22.5159 26.4943 22.0461 26.0261 22.0461 25.4529C22.0461 24.8805 22.5143 24.4115 23.0875 24.4115H35.58C36.1516 24.4115 36.6198 24.8805 36.6198 25.4529ZM35.0002 18.8704L35.3815 20.0499L36.6206 20.0474L35.6164 20.7737L36.0019 21.9524L35.0002 21.222L33.9985 21.9524L34.384 20.7737L33.3798 20.0474L34.6197 20.0499L35.0002 18.8704ZM23.6665 18.8704L24.047 20.0499L25.2869 20.0474L24.2827 20.7737L24.6682 21.9524L23.6665 21.222L22.6648 21.9524L23.0494 20.7737L22.0453 20.0474L23.2843 20.0499L23.6665 18.8704ZM29.3333 17.7851L29.9818 19.7951L32.0936 19.7918L30.383 21.0301L31.0389 23.0384L29.3325 21.7935L27.6261 23.0384L28.2828 21.0301L26.5715 19.7918L28.6832 19.7951L29.3333 17.7851ZM24.128 57.918V34.8221H23.0875C22.5159 34.8221 22.0461 34.3539 22.0461 33.7807C22.0461 33.2083 22.5143 32.7393 23.0875 32.7393H35.58C36.1524 32.7393 36.6206 33.2075 36.6206 33.7807C36.6206 34.3539 36.1516 34.8221 35.58 34.8221H34.5386V57.918H52.5847V11.4152H6.08195V57.9171H24.128V57.918ZM26.21 36.1232V57.918V59.9999H24.128H4V9.33325H54.6667V59.9999H34.5378H32.4559V57.918V36.1232C32.4559 35.4077 31.8702 34.8221 31.1547 34.8221C30.4392 34.8221 29.8536 35.4094 29.8536 36.1232V59.9999H28.8122V36.1232C28.8122 35.4077 28.2266 34.8221 27.5111 34.8221C26.7956 34.8221 26.21 35.4077 26.21 36.1232Z" fill="#1A1744"/>
</g>
<path d="M90.1255 18.176V18.736C89.4908 18.7547 89.0055 18.8293 88.6695 18.96C88.3522 19.072 88.1375 19.296 88.0255 19.632C87.9135 19.9493 87.8575 20.4533 87.8575 21.144V35.144C87.8575 35.7787 87.9042 36.2547 87.9975 36.572C88.1095 36.8893 88.3148 37.104 88.6135 37.216C88.9308 37.3093 89.3788 37.356 89.9575 37.356H91.7775C92.5802 37.356 93.2522 37.244 93.7935 37.02C94.3535 36.796 94.8202 36.46 95.1935 36.012C95.5668 35.564 95.8562 34.9853 96.0615 34.276C96.2668 33.5667 96.4255 32.736 96.5375 31.784H97.1815C97.1255 32.3813 97.0975 33.1653 97.0975 34.136C97.0975 34.5093 97.1068 35.06 97.1255 35.788C97.1628 36.4973 97.2188 37.2347 97.2935 38C96.3415 37.9627 95.2682 37.944 94.0735 37.944C92.8788 37.9253 91.8148 37.916 90.8815 37.916C90.4522 37.916 89.9015 37.916 89.2295 37.916C88.5575 37.916 87.8295 37.9253 87.0455 37.944C86.2802 37.944 85.4962 37.9533 84.6935 37.972C83.9095 37.972 83.1535 37.9813 82.4255 38V37.44C83.0602 37.4027 83.5362 37.328 83.8535 37.216C84.1708 37.104 84.3762 36.88 84.4695 36.544C84.5815 36.208 84.6375 35.704 84.6375 35.032V21.144C84.6375 20.4533 84.5815 19.9493 84.4695 19.632C84.3762 19.296 84.1615 19.072 83.8255 18.96C83.5082 18.8293 83.0415 18.7547 82.4255 18.736V18.176C82.8548 18.1947 83.4055 18.2133 84.0775 18.232C84.7682 18.2507 85.5055 18.26 86.2895 18.26C86.9988 18.26 87.6988 18.2507 88.3895 18.232C89.0988 18.2133 89.6775 18.1947 90.1255 18.176ZM108.477 18.064L115.309 35.648C115.571 36.3387 115.869 36.8053 116.205 37.048C116.56 37.2907 116.887 37.4213 117.185 37.44V38C116.737 37.9627 116.205 37.944 115.589 37.944C114.992 37.9253 114.385 37.916 113.769 37.916C112.985 37.916 112.257 37.9253 111.585 37.944C110.913 37.944 110.372 37.9627 109.961 38V37.44C110.913 37.4027 111.511 37.244 111.753 36.964C112.015 36.6653 111.959 36.04 111.585 35.088L106.545 21.48L106.993 20.976L102.345 33.128C102.009 33.968 101.804 34.668 101.729 35.228C101.673 35.788 101.72 36.2267 101.869 36.544C102.037 36.8613 102.317 37.0853 102.709 37.216C103.101 37.3467 103.587 37.4213 104.165 37.44V38C103.605 37.9627 103.036 37.944 102.457 37.944C101.897 37.9253 101.365 37.916 100.861 37.916C100.413 37.916 100.012 37.9253 99.6572 37.944C99.3212 37.944 99.0132 37.9627 98.7332 38V37.44C99.1252 37.3467 99.5172 37.1133 99.9092 36.74C100.301 36.3667 100.675 35.732 101.029 34.836L107.525 18.064C107.675 18.064 107.833 18.064 108.001 18.064C108.169 18.064 108.328 18.064 108.477 18.064ZM111.417 29.936V30.496H103.073L103.353 29.936H111.417ZM142.431 18.176V18.736C142.058 18.8293 141.657 19.0813 141.227 19.492C140.798 19.884 140.434 20.5467 140.135 21.48L134.983 38.112C134.909 38.112 134.825 38.112 134.731 38.112C134.657 38.112 134.582 38.112 134.507 38.112C134.414 38.112 134.33 38.112 134.255 38.112C134.181 38.112 134.106 38.112 134.031 38.112L128.095 20.444C127.871 19.7533 127.61 19.3053 127.311 19.1C127.031 18.876 126.761 18.7547 126.499 18.736V18.176C126.891 18.1947 127.377 18.2133 127.955 18.232C128.534 18.2507 129.094 18.26 129.635 18.26C130.401 18.26 131.11 18.2507 131.763 18.232C132.435 18.2133 132.967 18.1947 133.359 18.176V18.736C132.799 18.7547 132.351 18.82 132.015 18.932C131.698 19.0253 131.511 19.2307 131.455 19.548C131.418 19.8653 131.511 20.3787 131.735 21.088L135.851 33.744L135.375 34.36L138.903 23.244C139.277 22.0867 139.445 21.1907 139.407 20.556C139.389 19.9027 139.174 19.4453 138.763 19.184C138.371 18.904 137.793 18.7547 137.027 18.736V18.176C137.587 18.1947 138.147 18.2133 138.707 18.232C139.267 18.2507 139.809 18.26 140.331 18.26C140.798 18.26 141.19 18.2507 141.507 18.232C141.843 18.2133 142.151 18.1947 142.431 18.176ZM122.719 18.176V18.736C122.271 18.7733 121.954 18.8853 121.767 19.072C121.581 19.24 121.487 19.492 121.487 19.828C121.506 20.1453 121.599 20.5653 121.767 21.088L126.107 34.052L125.379 34.864L129.187 23.02L129.607 23.72L125.043 38.112C124.969 38.112 124.894 38.112 124.819 38.112C124.745 38.112 124.661 38.112 124.567 38.112C124.493 38.112 124.409 38.112 124.315 38.112C124.241 38.112 124.166 38.112 124.091 38.112L118.043 20.528C117.801 19.8187 117.502 19.352 117.147 19.128C116.793 18.8853 116.466 18.7547 116.167 18.736V18.176C116.615 18.1947 117.147 18.2133 117.763 18.232C118.379 18.2507 118.977 18.26 119.555 18.26C120.227 18.26 120.834 18.2507 121.375 18.232C121.935 18.2133 122.383 18.1947 122.719 18.176ZM144.433 18.176C144.863 18.1947 145.413 18.2133 146.085 18.232C146.776 18.2507 147.457 18.26 148.129 18.26C149.025 18.26 149.875 18.2507 150.677 18.232C151.499 18.2133 152.077 18.204 152.413 18.204C154 18.204 155.316 18.4093 156.361 18.82C157.425 19.2307 158.209 19.8093 158.713 20.556C159.236 21.284 159.497 22.124 159.497 23.076C159.497 23.6547 159.376 24.2707 159.133 24.924C158.909 25.5587 158.508 26.156 157.929 26.716C157.351 27.2573 156.567 27.7053 155.577 28.06C154.588 28.4147 153.328 28.592 151.797 28.592H149.109V28.032H151.517C152.768 28.032 153.72 27.8267 154.373 27.416C155.045 26.9867 155.493 26.4267 155.717 25.736C155.96 25.0267 156.081 24.2427 156.081 23.384C156.081 21.9093 155.764 20.7707 155.129 19.968C154.495 19.1467 153.393 18.736 151.825 18.736C151.023 18.736 150.491 18.8947 150.229 19.212C149.987 19.5293 149.865 20.1733 149.865 21.144V35.032C149.865 35.704 149.921 36.208 150.033 36.544C150.145 36.88 150.36 37.104 150.677 37.216C150.995 37.328 151.461 37.4027 152.077 37.44V38C151.629 37.9627 151.06 37.944 150.369 37.944C149.697 37.9253 149.007 37.916 148.297 37.916C147.513 37.916 146.776 37.9253 146.085 37.944C145.413 37.944 144.863 37.9627 144.433 38V37.44C145.068 37.4027 145.544 37.328 145.861 37.216C146.179 37.104 146.384 36.88 146.477 36.544C146.589 36.208 146.645 35.704 146.645 35.032V21.144C146.645 20.4533 146.589 19.9493 146.477 19.632C146.384 19.296 146.169 19.072 145.833 18.96C145.516 18.8293 145.049 18.7547 144.433 18.736V18.176ZM149.165 28.116C150.117 28.1533 150.883 28.2 151.461 28.256C152.04 28.2933 152.525 28.3307 152.917 28.368C153.309 28.4053 153.673 28.452 154.009 28.508C155.409 28.6947 156.427 29.068 157.061 29.628C157.715 30.188 158.163 31.0467 158.405 32.204L159.105 35.06C159.273 35.8627 159.451 36.432 159.637 36.768C159.843 37.104 160.141 37.272 160.533 37.272C160.832 37.2533 161.075 37.1693 161.261 37.02C161.467 36.852 161.681 36.628 161.905 36.348L162.297 36.656C161.868 37.2347 161.42 37.6733 160.953 37.972C160.487 38.252 159.861 38.392 159.077 38.392C158.275 38.392 157.584 38.1867 157.005 37.776C156.445 37.3467 156.044 36.544 155.801 35.368L155.241 32.568C155.073 31.7653 154.887 31.0747 154.681 30.496C154.476 29.8987 154.187 29.432 153.813 29.096C153.459 28.76 152.936 28.592 152.245 28.592H149.221L149.165 28.116ZM178.308 18.176C178.233 18.8853 178.177 19.576 178.14 20.248C178.121 20.9013 178.112 21.4053 178.112 21.76C178.112 22.1147 178.121 22.4507 178.14 22.768C178.158 23.0853 178.177 23.3467 178.196 23.552H177.552C177.421 22.3573 177.216 21.4147 176.936 20.724C176.674 20.0333 176.273 19.548 175.732 19.268C175.209 18.9693 174.472 18.82 173.52 18.82H171.588C170.99 18.82 170.533 18.876 170.216 18.988C169.917 19.0813 169.712 19.2867 169.6 19.604C169.488 19.9027 169.432 20.3787 169.432 21.032V35.144C169.432 35.7787 169.488 36.2547 169.6 36.572C169.712 36.8893 169.917 37.104 170.216 37.216C170.533 37.3093 170.99 37.356 171.588 37.356H173.408C174.472 37.356 175.312 37.188 175.928 36.852C176.562 36.516 177.038 35.9653 177.356 35.2C177.692 34.4347 177.944 33.3893 178.112 32.064H178.756C178.7 32.6053 178.672 33.3147 178.672 34.192C178.672 34.5653 178.681 35.1067 178.7 35.816C178.737 36.5253 178.793 37.2533 178.868 38C177.916 37.9627 176.842 37.944 175.648 37.944C174.453 37.9253 173.389 37.916 172.456 37.916C172.026 37.916 171.476 37.916 170.804 37.916C170.132 37.916 169.404 37.9253 168.62 37.944C167.854 37.944 167.07 37.9533 166.268 37.972C165.484 37.972 164.728 37.9813 164 38V37.44C164.634 37.4027 165.11 37.328 165.428 37.216C165.745 37.104 165.95 36.88 166.044 36.544C166.156 36.208 166.212 35.704 166.212 35.032V21.144C166.212 20.4533 166.156 19.9493 166.044 19.632C165.95 19.296 165.736 19.072 165.4 18.96C165.082 18.8293 164.616 18.7547 164 18.736V18.176C164.728 18.1947 165.484 18.2133 166.268 18.232C167.07 18.232 167.854 18.2413 168.62 18.26C169.404 18.26 170.132 18.26 170.804 18.26C171.476 18.26 172.026 18.26 172.456 18.26C173.314 18.26 174.285 18.26 175.368 18.26C176.469 18.2413 177.449 18.2133 178.308 18.176ZM173.66 27.752C173.66 27.752 173.66 27.8453 173.66 28.032C173.66 28.2187 173.66 28.312 173.66 28.312H168.592C168.592 28.312 168.592 28.2187 168.592 28.032C168.592 27.8453 168.592 27.752 168.592 27.752H173.66ZM174.472 24.056C174.397 25.12 174.36 25.932 174.36 26.492C174.378 27.052 174.388 27.5653 174.388 28.032C174.388 28.4987 174.397 29.012 174.416 29.572C174.434 30.132 174.481 30.944 174.556 32.008H173.912C173.818 31.392 173.697 30.804 173.548 30.244C173.398 29.6653 173.128 29.1987 172.736 28.844C172.362 28.4893 171.774 28.312 170.972 28.312V27.752C171.569 27.752 172.036 27.6307 172.372 27.388C172.726 27.1453 172.997 26.828 173.184 26.436C173.37 26.044 173.501 25.6427 173.576 25.232C173.669 24.8027 173.753 24.4107 173.828 24.056H174.472ZM198.241 18.176C198.166 18.96 198.11 19.7253 198.073 20.472C198.054 21.2 198.045 21.76 198.045 22.152C198.045 22.5813 198.054 22.992 198.073 23.384C198.092 23.776 198.11 24.112 198.129 24.392H197.485C197.298 22.992 197.046 21.8907 196.729 21.088C196.43 20.2853 195.992 19.7067 195.413 19.352C194.834 18.9973 194.004 18.82 192.921 18.82H191.717V34.78C191.717 35.5267 191.782 36.0867 191.913 36.46C192.062 36.8333 192.342 37.0853 192.753 37.216C193.182 37.328 193.798 37.4027 194.601 37.44V38C194.078 37.9627 193.406 37.944 192.585 37.944C191.764 37.9253 190.924 37.916 190.065 37.916C189.169 37.916 188.32 37.9253 187.517 37.944C186.733 37.944 186.098 37.9627 185.613 38V37.44C186.416 37.4027 187.022 37.328 187.433 37.216C187.844 37.0853 188.124 36.8333 188.273 36.46C188.422 36.0867 188.497 35.5267 188.497 34.78V18.82H187.265C186.22 18.82 185.398 18.9973 184.801 19.352C184.204 19.7067 183.756 20.2853 183.457 21.088C183.158 21.8907 182.916 22.992 182.729 24.392H182.085C182.122 24.112 182.141 23.776 182.141 23.384C182.16 22.992 182.169 22.5813 182.169 22.152C182.169 21.76 182.15 21.2 182.113 20.472C182.094 19.7253 182.048 18.96 181.973 18.176C182.776 18.1947 183.653 18.2133 184.605 18.232C185.557 18.2507 186.518 18.26 187.489 18.26C188.46 18.26 189.337 18.26 190.121 18.26C190.905 18.26 191.773 18.26 192.725 18.26C193.677 18.26 194.638 18.2507 195.609 18.232C196.58 18.2133 197.457 18.1947 198.241 18.176ZM210.657 17.784C212.486 17.784 214.092 18.1853 215.473 18.988C216.873 19.7907 217.956 20.948 218.721 22.46C219.486 23.9533 219.869 25.7733 219.869 27.92C219.869 30.0107 219.477 31.84 218.693 33.408C217.909 34.976 216.817 36.1987 215.417 37.076C214.017 37.9533 212.421 38.392 210.629 38.392C208.781 38.392 207.166 37.9907 205.785 37.188C204.404 36.3853 203.33 35.228 202.565 33.716C201.8 32.204 201.417 30.384 201.417 28.256C201.417 26.1653 201.809 24.336 202.593 22.768C203.396 21.2 204.488 19.9773 205.869 19.1C207.25 18.2227 208.846 17.784 210.657 17.784ZM210.545 18.288C209.388 18.288 208.38 18.708 207.521 19.548C206.662 20.388 206 21.5453 205.533 23.02C205.066 24.4947 204.833 26.2027 204.833 28.144C204.833 30.1227 205.094 31.8493 205.617 33.324C206.14 34.78 206.849 35.9093 207.745 36.712C208.641 37.496 209.64 37.888 210.741 37.888C211.898 37.888 212.897 37.468 213.737 36.628C214.596 35.788 215.258 34.6307 215.725 33.156C216.21 31.6627 216.453 29.9547 216.453 28.032C216.453 26.0347 216.182 24.308 215.641 22.852C215.118 21.396 214.409 20.276 213.513 19.492C212.636 18.6893 211.646 18.288 210.545 18.288Z" fill="white"/>
<path d="M82.2168 61V54.5752H82.9639V60.3232H85.7983V61H82.2168ZM93.9312 61L93.1313 58.9565H90.5562L89.7651 61H89.0093L91.5493 54.5488H92.1777L94.7046 61H93.9312ZM92.8984 58.2842L92.1514 56.2935C92.0547 56.0415 91.9551 55.7324 91.8525 55.3662C91.7881 55.6475 91.6958 55.9565 91.5757 56.2935L90.8198 58.2842H92.8984ZM104.195 61H103.457L102.161 56.6978C102.099 56.5073 102.03 56.2671 101.954 55.9771C101.878 55.687 101.838 55.5127 101.835 55.4541C101.771 55.8408 101.668 56.2642 101.528 56.7241L100.271 61H99.5327L97.8232 54.5752H98.6143L99.6294 58.5435C99.77 59.1001 99.8726 59.604 99.937 60.0552C100.016 59.519 100.133 58.9946 100.289 58.4819L101.44 54.5752H102.231L103.439 58.5171C103.58 58.9712 103.699 59.4839 103.795 60.0552C103.851 59.6392 103.957 59.1323 104.112 58.5347L105.123 54.5752H105.914L104.195 61ZM111.555 57.7876L113.269 54.5752H114.077L111.933 58.5083V61H111.177V58.5435L109.037 54.5752H109.854L111.555 57.7876ZM121.546 61H117.965V54.5752H121.546V55.2388H118.712V57.3086H121.375V57.9678H118.712V60.332H121.546V61ZM126.722 58.3281V61H125.975V54.5752H127.737C128.525 54.5752 129.106 54.7261 129.481 55.0278C129.859 55.3296 130.048 55.7837 130.048 56.3901C130.048 57.2397 129.618 57.814 128.756 58.1128L130.501 61H129.618L128.062 58.3281H126.722ZM126.722 57.6865H127.746C128.273 57.6865 128.66 57.5825 128.906 57.3745C129.152 57.1636 129.275 56.8486 129.275 56.4297C129.275 56.0049 129.149 55.6987 128.897 55.5112C128.648 55.3237 128.247 55.23 127.693 55.23H126.722V57.6865ZM140.812 55.854C140.812 56.0562 140.865 56.2495 140.97 56.4341C141.076 56.6157 141.256 56.8354 141.511 57.0933C141.889 56.8735 142.151 56.6714 142.297 56.4868C142.447 56.2993 142.521 56.084 142.521 55.8408C142.521 55.6152 142.445 55.4321 142.293 55.2915C142.144 55.1479 141.943 55.0762 141.691 55.0762C141.43 55.0762 141.218 55.1465 141.054 55.2871C140.893 55.4277 140.812 55.6167 140.812 55.854ZM141.493 60.4331C142.199 60.4331 142.785 60.2075 143.251 59.7563L141.331 57.8931C141.005 58.0923 140.775 58.2578 140.641 58.3896C140.506 58.5186 140.406 58.6577 140.342 58.8071C140.277 58.9565 140.245 59.1265 140.245 59.3169C140.245 59.6597 140.358 59.9321 140.583 60.1343C140.812 60.3335 141.115 60.4331 141.493 60.4331ZM139.489 59.3345C139.489 58.9536 139.59 58.6167 139.792 58.3237C139.998 58.0308 140.364 57.7349 140.891 57.436C140.642 57.1577 140.472 56.9468 140.381 56.8032C140.293 56.6597 140.223 56.5103 140.17 56.355C140.118 56.1997 140.091 56.0386 140.091 55.8716C140.091 55.4321 140.235 55.0894 140.522 54.8433C140.809 54.5972 141.209 54.4741 141.722 54.4741C142.196 54.4741 142.57 54.5972 142.842 54.8433C143.115 55.0864 143.251 55.4263 143.251 55.8628C143.251 56.1763 143.151 56.4663 142.952 56.7329C142.753 56.9966 142.423 57.2646 141.963 57.5371L143.752 59.2554C143.916 59.0737 144.046 58.8613 144.143 58.6182C144.243 58.3721 144.326 58.104 144.394 57.814H145.132C144.933 58.6519 144.632 59.2876 144.231 59.7212L145.545 61H144.539L143.726 60.2178C143.38 60.5283 143.028 60.751 142.671 60.8857C142.313 61.0205 141.915 61.0879 141.476 61.0879C140.846 61.0879 140.356 60.9326 140.008 60.6221C139.662 60.3115 139.489 59.8823 139.489 59.3345ZM158.827 61L158.027 58.9565H155.452L154.661 61H153.905L156.445 54.5488H157.073L159.6 61H158.827ZM157.794 58.2842L157.047 56.2935C156.95 56.0415 156.851 55.7324 156.748 55.3662C156.684 55.6475 156.591 55.9565 156.471 56.2935L155.715 58.2842H157.794ZM165.461 61H164.714V55.2388H162.679V54.5752H167.496V55.2388H165.461V61ZM173.444 61H172.697V55.2388H170.663V54.5752H175.479V55.2388H173.444V61ZM185.027 57.7788C185.027 58.8071 184.766 59.6157 184.245 60.2046C183.726 60.7935 183.004 61.0879 182.078 61.0879C181.132 61.0879 180.401 60.7993 179.885 60.2222C179.373 59.6421 179.116 58.8247 179.116 57.77C179.116 56.7241 179.374 55.9141 179.89 55.3398C180.405 54.7627 181.138 54.4741 182.087 54.4741C183.01 54.4741 183.73 54.7671 184.249 55.353C184.768 55.939 185.027 56.7476 185.027 57.7788ZM179.907 57.7788C179.907 58.6489 180.092 59.3096 180.461 59.7607C180.833 60.209 181.372 60.4331 182.078 60.4331C182.79 60.4331 183.328 60.209 183.691 59.7607C184.054 59.3125 184.236 58.6519 184.236 57.7788C184.236 56.9146 184.054 56.2598 183.691 55.8145C183.331 55.3662 182.796 55.1421 182.087 55.1421C181.375 55.1421 180.833 55.3677 180.461 55.8188C180.092 56.2671 179.907 56.9204 179.907 57.7788ZM190.211 58.3281V61H189.464V54.5752H191.226C192.014 54.5752 192.596 54.7261 192.971 55.0278C193.349 55.3296 193.538 55.7837 193.538 56.3901C193.538 57.2397 193.107 57.814 192.246 58.1128L193.99 61H193.107L191.551 58.3281H190.211ZM190.211 57.6865H191.235C191.762 57.6865 192.149 57.5825 192.395 57.3745C192.641 57.1636 192.764 56.8486 192.764 56.4297C192.764 56.0049 192.638 55.6987 192.386 55.5112C192.137 55.3237 191.736 55.23 191.182 55.23H190.211V57.6865ZM203.046 61H202.193L198.682 55.6079H198.647C198.694 56.2407 198.717 56.8208 198.717 57.3481V61H198.027V54.5752H198.871L202.374 59.9453H202.409C202.403 59.8662 202.39 59.6128 202.369 59.1851C202.349 58.7544 202.341 58.4468 202.347 58.2622V54.5752H203.046V61ZM211.394 61H207.812V54.5752H211.394V55.2388H208.56V57.3086H211.223V57.9678H208.56V60.332H211.394V61ZM217.457 57.7876L219.171 54.5752H219.979L217.835 58.5083V61H217.079V58.5435L214.939 54.5752H215.756L217.457 57.7876Z" fill="#D58F76"/>
</g>
<defs>
<clipPath id="clip0_2_383">
<rect width="221" height="74" fill="white"/>
</clipPath>
<clipPath id="clip1_2_383">
<rect width="50.6667" height="50.6667" fill="white" transform="translate(4 9.33325)"/>
</clipPath>
</defs>
</svg>
